<svg xmlns="http://www.w3.org/2000/svg" xmlns:xlink="http://www.w3.org/1999/xlink" width="500" zoomAndPan="magnify" viewBox="0 0 375 374.999991" height="500" preserveAspectRatio="xMidYMid meet" version="1.0"><defs><g><g id="id1"/><g id="id2"/></g></defs><rect x="-37.5" width="450" fill="rgb(100%, 100%, 100%)" y="-37.499999" height="449.999989" fill-opacity="1"/><rect x="-37.5" width="450" fill="rgb(100%, 100%, 100%)" y="-37.499999" height="449.999989" fill-opacity="1"/><rect x="-37.5" width="450" fill="rgb(100%, 100%, 100%)" y="-37.499999" height="449.999989" fill-opacity="1"/><rect x="-37.5" width="450" fill="rgb(100%, 100%, 100%)" y="-37.499999" height="449.999989" fill-opacity="1"/><g fill="rgb(0%, 0%, 0%)" fill-opacity="1"><g transform="translate(33.831439, 176.693791)"><g><path d="M 154.125 -143.125 C 146.9375 -141.957031 142.28125 -140.3125 140.15625 -138.1875 C 138.03125 -136.0625 136.96875 -131.847656 136.96875 -125.546875 L 136.96875 3.953125 L 130.8125 3.953125 L 32.546875 -115.640625 L 32.546875 -27.265625 C 32.546875 -19.492188 33.898438 -14.175781 36.609375 -11.3125 C 39.316406 -8.457031 44.921875 -6.519531 53.421875 -5.5 L 53.421875 0 L 3.515625 0 L 3.515625 -5.5 C 11.578125 -6.519531 16.816406 -8.128906 19.234375 -10.328125 C 21.648438 -12.523438 22.859375 -16.773438 22.859375 -23.078125 L 22.859375 -127.296875 C 17.585938 -133.597656 13.703125 -137.8125 11.203125 -139.9375 C 8.710938 -142.0625 6.367188 -143.125 4.171875 -143.125 L 4.171875 -148.625 L 50.5625 -148.625 L 127.296875 -54.3125 L 127.296875 -121.359375 C 127.296875 -129.128906 125.898438 -134.515625 123.109375 -137.515625 C 120.328125 -140.523438 114.910156 -142.394531 106.859375 -143.125 L 106.859375 -148.625 L 154.125 -148.625 Z M 154.125 -143.125 "/></g></g></g><g fill="rgb(0%, 0%, 0%)" fill-opacity="1"><g transform="translate(192.563886, 176.693791)"><g><path d="M 140.9375 -45.734375 L 132.140625 0 L 3.515625 0 L 3.515625 -5.5 C 11.722656 -6.375 17 -7.765625 19.34375 -9.671875 C 21.6875 -11.578125 22.859375 -15.390625 22.859375 -21.109375 L 22.859375 -127.515625 C 22.859375 -133.085938 21.539062 -136.972656 18.90625 -139.171875 C 16.269531 -141.367188 11.140625 -142.6875 3.515625 -143.125 L 3.515625 -148.625 L 130.375 -148.625 L 130.375 -104.4375 L 124.875 -104.4375 C 122.09375 -119.09375 117.179688 -128.875 110.140625 -133.78125 C 103.109375 -138.695312 90.65625 -141.15625 72.78125 -141.15625 C 67.0625 -141.15625 63.25 -140.457031 61.34375 -139.0625 C 59.4375 -137.664062 58.484375 -134.914062 58.484375 -130.8125 L 58.484375 -79.8125 C 70.359375 -79.664062 78.859375 -81.9375 83.984375 -86.625 C 89.117188 -91.3125 92.488281 -99.957031 94.09375 -112.5625 L 99.8125 -112.5625 L 99.8125 -38.25 L 94.09375 -38.25 C 92.78125 -51.007812 89.519531 -59.878906 84.3125 -64.859375 C 79.113281 -69.835938 70.503906 -72.328125 58.484375 -72.328125 L 58.484375 -19.125 C 58.484375 -14.4375 59.765625 -11.210938 62.328125 -9.453125 C 64.890625 -7.691406 69.691406 -6.8125 76.734375 -6.8125 C 93.148438 -6.8125 106.34375 -10.84375 116.3125 -18.90625 C 123.050781 -24.625 129.207031 -33.566406 134.78125 -45.734375 Z M 140.9375 -45.734375 "/></g></g></g><g fill="rgb(0%, 0%, 0%)" fill-opacity="1"><g transform="translate(33.460861, 347.689455)"><g><path d="M 154.125 -143.125 C 146.9375 -141.957031 142.28125 -140.3125 140.15625 -138.1875 C 138.03125 -136.0625 136.96875 -131.847656 136.96875 -125.546875 L 136.96875 3.953125 L 130.8125 3.953125 L 32.546875 -115.640625 L 32.546875 -27.265625 C 32.546875 -19.492188 33.898438 -14.175781 36.609375 -11.3125 C 39.316406 -8.457031 44.921875 -6.519531 53.421875 -5.5 L 53.421875 0 L 3.515625 0 L 3.515625 -5.5 C 11.578125 -6.519531 16.816406 -8.128906 19.234375 -10.328125 C 21.648438 -12.523438 22.859375 -16.773438 22.859375 -23.078125 L 22.859375 -127.296875 C 17.585938 -133.597656 13.703125 -137.8125 11.203125 -139.9375 C 8.710938 -142.0625 6.367188 -143.125 4.171875 -143.125 L 4.171875 -148.625 L 50.5625 -148.625 L 127.296875 -54.3125 L 127.296875 -121.359375 C 127.296875 -129.128906 125.898438 -134.515625 123.109375 -137.515625 C 120.328125 -140.523438 114.910156 -142.394531 106.859375 -143.125 L 106.859375 -148.625 L 154.125 -148.625 Z M 154.125 -143.125 "/></g></g></g><g fill="rgb(0%, 0%, 0%)" fill-opacity="1"><g transform="translate(192.195288, 347.689455)"><g><path d="M 151.484375 0 L 80.25 0 L 80.25 -5.5 L 87.28125 -6.15625 C 91.09375 -6.300781 93.804688 -6.921875 95.421875 -8.015625 C 97.035156 -9.117188 97.84375 -10.914062 97.84375 -13.40625 C 97.84375 -17.65625 94.46875 -27.625 87.71875 -43.3125 L 38.25 -43.3125 L 34.953125 -34.515625 C 30.703125 -23.960938 28.578125 -17.289062 28.578125 -14.5 C 28.578125 -11.71875 29.96875 -9.628906 32.75 -8.234375 C 35.539062 -6.847656 40.160156 -5.9375 46.609375 -5.5 L 46.609375 0 L 1.984375 0 L 1.984375 -5.5 C 7.253906 -6.519531 11.132812 -8.492188 13.625 -11.421875 C 16.125 -14.359375 19.425781 -20.957031 23.53125 -31.21875 L 72.328125 -151.703125 L 78.484375 -151.703125 L 127.515625 -36.0625 C 133.378906 -22.28125 137.628906 -13.738281 140.265625 -10.4375 C 142.910156 -7.144531 146.648438 -5.5 151.484375 -5.5 Z M 84.421875 -51.890625 L 62.21875 -105.3125 L 41.546875 -51.890625 Z M 84.421875 -51.890625 "/></g></g></g></svg>